<?xml version="1.0" encoding="UTF-8" standalone="no"?>
<svg
   xmlns:dc="http://purl.org/dc/elements/1.1/"
   xmlns:cc="http://creativecommons.org/ns#"
   xmlns:rdf="http://www.w3.org/1999/02/22-rdf-syntax-ns#"
   xmlns:svg="http://www.w3.org/2000/svg"
   xmlns="http://www.w3.org/2000/svg"
   xmlns:xlink="http://www.w3.org/1999/xlink"
   xmlns:sodipodi="http://sodipodi.sourceforge.net/DTD/sodipodi-0.dtd"
   xmlns:inkscape="http://www.inkscape.org/namespaces/inkscape"
   sodipodi:docname="audem.svg"
   inkscape:version="1.0beta1 (32d4812, 2019-09-19)"
   id="svg8"
   version="1.1"
   viewBox="0 0 210 297"
   height="297mm"
   width="210mm">
  <defs
     id="defs2">
    <linearGradient
       id="linearGradient921"
       inkscape:collect="always">
      <stop
         id="stop917"
         offset="0"
         style="stop-color:#ff0000;stop-opacity:1;" />
      <stop
         id="stop919"
         offset="1"
         style="stop-color:#fff800;stop-opacity:1" />
    </linearGradient>
    <linearGradient
       gradientUnits="userSpaceOnUse"
       y2="190.8793"
       x2="139.90981"
       y1="97.833305"
       x1="103.14151"
       id="linearGradient925"
       xlink:href="#linearGradient921"
       inkscape:collect="always" />
    <linearGradient
       id="linearGradient3902">
      <stop
         style="stop-color:#ffffff;stop-opacity:1;"
         offset="0"
         id="stop3904" />
      <stop
         style="stop-color:#fff9f9;stop-opacity:0.72868216;"
         offset="1"
         id="stop3906" />
    </linearGradient>
    <linearGradient
       id="linearGradient4110">
      <stop
         style="stop-color:#0eb0fb;stop-opacity:1;"
         offset="0"
         id="stop4112" />
      <stop
         style="stop-color:#ff00f3;stop-opacity:1;"
         offset="1"
         id="stop4114" />
    </linearGradient>
    <inkscape:perspective
       sodipodi:type="inkscape:persp3d"
       inkscape:vp_x="0 : 512 : 1"
       inkscape:vp_y="0 : 1000 : 0"
       inkscape:vp_z="1024 : 512 : 1"
       inkscape:persp3d-origin="512 : 341.33333 : 1"
       id="perspective4094" />
    <linearGradient
       id="linearGradient4483">
      <stop
         style="stop-color:#056aff;stop-opacity:1;"
         offset="0"
         id="stop4485" />
      <stop
         style="stop-color:#ffffff;stop-opacity:0;"
         offset="1"
         id="stop4487" />
    </linearGradient>
  </defs>
  <sodipodi:namedview
     inkscape:window-maximized="0"
     inkscape:window-y="23"
     inkscape:window-x="0"
     inkscape:window-height="855"
     inkscape:window-width="1440"
     inkscape:guide-bbox="true"
     showguides="true"
     showgrid="false"
     inkscape:document-rotation="0"
     inkscape:current-layer="layer1"
     inkscape:document-units="mm"
     inkscape:cy="544.94142"
     inkscape:cx="739.97423"
     inkscape:zoom="0.51815328"
     inkscape:pageshadow="2"
     inkscape:pageopacity="0.0"
     borderopacity="1.0"
     bordercolor="#666666"
     pagecolor="#ffffff"
     id="base" />
  <metadata
     id="metadata5">
    <rdf:RDF>
      <cc:Work
         rdf:about="">
        <dc:format>image/svg+xml</dc:format>
        <dc:type
           rdf:resource="http://purl.org/dc/dcmitype/StillImage" />
        <dc:title></dc:title>
      </cc:Work>
    </rdf:RDF>
  </metadata>
  <g
     id="layer1"
     inkscape:groupmode="layer"
     inkscape:label="Layer 1">
    <g
       inkscape:export-ydpi="300"
       inkscape:export-xdpi="300"
       style="display:inline;opacity:1;stop-opacity:1;fill:none;stroke:none"
       transform="matrix(0.17065856,0,0,0.17065856,26.19841,77.316606)"
       id="layer1-0"
       inkscape:label="BORDER">
      <path
         style="fill:none;stroke:none;stroke-opacity:1"
         id="path5"
         d="m 301.95446,-211.52169 h 319.59108 c 101.4156,0 152.12339,0 206.7084,17.25959 59.59748,21.69173 106.54481,68.63899 128.23654,128.236542 C 973.75,-11.44076 973.75,39.267072 973.75,140.68273 v 319.59116 c 0,101.41566 0,152.12349 -17.25952,206.70829 -21.69173,59.59758 -68.63906,106.54477 -128.23654,128.23654 -54.58501,17.25959 -105.2928,17.25959 -206.7084,17.25959 H 301.95446 c -101.4156,0 -152.12339,0 -206.708396,-17.25959 C 35.648581,773.52695 -11.298747,726.57976 -32.99048,666.98218 -50.25,612.39738 -50.25,561.68955 -50.25,460.27389 V 140.68273 c 0,-101.415658 0,-152.12349 17.25952,-206.708254 21.691733,-59.597546 68.639061,-106.544846 128.236544,-128.236576 54.585006,-17.25959 105.292796,-17.25959 206.708396,-17.25959 v 0"
         inkscape:connector-curvature="0" />
    </g>
    <g
       inkscape:export-ydpi="300"
       inkscape:export-xdpi="300"
       transform="matrix(0.96069747,0,0,0.96069747,5.9090026,-4.5081639)"
       id="g935">
      <path
         id="path855"
         style="opacity:1;fill:url(#linearGradient925);fill-opacity:1;stroke:none;stroke-width:1.01499;stop-opacity:1"
         d="m 103.14151,97.833303 v 46.696377 c 1.05856,-0.0109 2.12418,0.20581 3.11144,0.68626 1.80113,0.87654 3.43986,2.96054 3.82405,4.86224 0.25341,1.25432 0.10811,3.65031 -0.26975,4.44624 -0.06,0.1265 5.06278,6.03814 11.3838,13.13718 l 11.49232,12.90722 0.55811,1.89756 0.54777,1.86035 6.12055,6.55257 c 10.61382,-10.18354 16.62326,-24.32051 16.62328,-39.10562 0,-29.78257 -23.90099,-53.929238 -53.39157,-53.940377 z"
         inkscape:connector-curvature="0"
         sodipodi:nodetypes="cccccccccccc" />
      <path
         inkscape:connector-curvature="0"
         id="path847"
         style="opacity:1;fill:#000000;stroke-width:0.264583;stop-opacity:1"
         d="m 103.05107,144.52916 c -2.78103,0.063 -5.496336,1.70655 -6.592359,4.34961 -1.980311,4.77556 1.77937,10.32517 6.753079,9.96838 0.68113,-0.0489 1.56737,-0.10946 1.96939,-0.13488 0.72109,-0.0456 0.89282,0.11747 12.7155,12.08454 l 11.98428,12.13104 1.95957,0.71779 1.95957,0.71778 -0.55862,-1.89704 -0.55811,-1.89756 -11.49232,-12.90722 c -6.32102,-7.09904 -11.44384,-13.01068 -11.3838,-13.13718 0.37786,-0.79593 0.52316,-3.19192 0.26975,-4.44624 -0.38419,-1.9017 -2.02292,-3.9857 -3.82405,-4.86224 -1.01538,-0.49413 -2.11365,-0.71144 -3.20188,-0.68678 z m 0.0264,4.46743 a 2.4660177,2.4660177 0 0 1 0.002,0 2.4660177,2.4660177 0 0 1 2.466,2.466 2.4660177,2.4660177 0 0 1 -0.9772,1.96577 c -0.17483,0.14738 -0.3797,0.27198 -0.62063,0.36277 -0.63536,0.23942 -1.2574,0.19398 -1.78129,-0.0377 a 2.4660177,2.4660177 0 0 1 -1.55288,-2.29081 2.4660177,2.4660177 0 0 1 2.46393,-2.466 z" />
      <path
         sodipodi:nodetypes="csscccccssssssscccccscccsscscscscccssssscccsscsscssccccsssssccsccccccccccccscssccccccsssssssssscscccccccccccccccccccscsssss"
         inkscape:connector-curvature="0"
         id="path849"
         d="m 109.22701,217.50486 c 16.37271,-1.56633 31.71639,-9.23669 42.6451,-21.31844 17.45619,-19.29792 21.94412,-46.40509 11.66707,-70.46929 -2.67861,-6.27208 -7.43617,-13.58292 -11.89341,-18.27637 l -1.40109,-1.47533 0.79404,-0.76073 0.79403,-0.76073 1.39347,1.37616 c 1.14658,1.13234 1.55798,1.37617 2.32196,1.37617 0.84732,0 1.29184,-0.36593 5.08491,-4.18586 3.73023,-3.756634 4.15642,-4.278124 4.15642,-5.085684 0,-0.815893 -0.47587,-1.375713 -5.10076,-6.000613 -4.67213,-4.672131 -5.17821,-5.100763 -6.02237,-5.100763 -0.83731,0 -1.3025,0.381444 -5.0857,4.170193 -3.76858,3.77411 -4.16408,4.25708 -4.16408,5.08492 0,0.74787 0.25207,1.16995 1.38198,2.314083 l 1.38199,1.399365 -0.82856,0.828559 -0.82856,0.82857 -2.52765,-1.899824 C 133.53414,92.437703 122.45473,87.969123 110.74837,86.543117 l -2.57969,-0.314243 V 82.954252 79.67963 h 2.65514 c 3.01066,0 3.7848,-0.311139 4.39242,-1.765376 0.5654,-1.353192 0.51743,-15.683894 -0.0565,-16.893462 -0.79148,-1.667903 -1.10405,-1.714077 -11.60357,-1.714077 -10.280202,0 -10.770502,0.06228 -11.704892,1.486836 -0.43092,0.656972 -0.49293,1.487992 -0.56921,7.628869 -0.10493,8.446653 -0.01,9.401338 1.04202,10.453124 0.76198,0.761976 0.87446,0.788747 3.61917,0.861397 l 2.83275,0.07498 v 3.165349 3.16535 l -3.57187,0.464121 c -11.89594,1.545733 -22.450519,5.827552 -31.932862,12.954655 -3.30901,2.487104 -8.59301,7.608124 -11.21971,10.873664 -9.178321,11.41057 -14.134181,24.63855 -14.696311,39.22686 -0.65644,17.03548 5.45105,33.69531 17.055871,46.5245 13.762254,15.21425 34.464182,23.26543 54.815924,21.31844 z M 94.939508,207.33871 c -12.29479,-1.9285 -22.680229,-7.18165 -31.362172,-15.86359 -8.74975,-8.74975 -14.002841,-19.19212 -15.910021,-31.62675 -0.62852,-4.09789 -0.62624,-11.70626 0.005,-15.87499 2.815481,-18.60089 14.224881,-34.18663 30.995583,-42.34128 6.9465,-3.377694 13.12145,-5.006947 20.96823,-5.532447 13.493832,-0.90368 27.366132,3.374323 38.020122,11.724797 9.61601,7.53694 16.66037,18.30915 19.73668,30.18129 2.26454,8.73935 2.30992,18.70501 0.12476,27.39888 -2.53894,10.10142 -7.40176,18.66069 -14.81158,26.0705 -9.56332,9.56333 -21.53151,15.10678 -35.33092,16.36465 -2.39697,0.21849 -9.732342,-0.0771 -12.435422,-0.50106 z m 8.731252,-5.55389 c 0,-2.86631 -0.0307,-3.0427 -0.52916,-3.0427 -0.49849,0 -0.52917,0.17639 -0.52917,3.0427 0,2.86632 0.0307,3.04271 0.52917,3.04271 0.49849,0 0.52916,-0.17639 0.52916,-3.04271 z m 26.00366,-4.17566 c 0.36846,-0.28472 0.25713,-0.59716 -0.95572,-2.68229 -1.41967,-2.44072 -1.65363,-2.68018 -2.24976,-2.30272 -0.27398,0.17348 -0.045,0.76498 1.02446,2.64586 0.75752,1.33234 1.46432,2.4762 1.57065,2.54192 0.10634,0.0657 0.381,-0.0255 0.61037,-0.20277 z m -51.384492,-1.57669 c 0.60697,-1.05631 1.25991,-2.17241 1.45098,-2.48022 0.25911,-0.41741 0.2711,-0.63597 0.0472,-0.8599 -0.59207,-0.59206 -0.78824,-0.36876 -2.80294,3.19041 -0.8294,1.46524 -0.83827,1.51396 -0.32571,1.78827 0.47294,0.25311 0.63998,0.0852 1.63049,-1.63856 z m 70.734802,-17.83343 c 0.0917,-0.23911 0.13426,-0.45864 0.0944,-0.48783 -0.0398,-0.0292 -1.1291,-0.6692 -2.42064,-1.42222 -1.83389,-1.06923 -2.42793,-1.30301 -2.71198,-1.06727 -0.20004,0.16602 -0.36372,0.39739 -0.36372,0.51416 0,0.24181 4.54982,2.8979 4.96403,2.8979 0.14907,0 0.3461,-0.19563 0.43785,-0.43474 z m -88.745634,-0.9043 c 2.07739,-1.21631 2.42125,-1.61642 1.87316,-2.17963 -0.31781,-0.32656 -5.06458,2.51968 -4.98063,2.98647 0.12772,0.71012 0.82638,0.52872 3.10747,-0.80684 z m 95.779164,-25.38386 c 0,-0.4971 -0.17638,-0.52917 -2.91041,-0.52917 -2.73403,0 -2.91042,0.0321 -2.91042,0.52917 0,0.49709 0.17639,0.52916 2.91042,0.52916 2.73403,0 2.91041,-0.0321 2.91041,-0.52916 z m -100.012504,0 c 0,-0.4971 -0.17639,-0.52917 -2.91041,-0.52917 -2.73403,0 -2.91042,0.0321 -2.91042,0.52917 0,0.49709 0.17639,0.52916 2.91042,0.52916 2.73402,0 2.91041,-0.0321 2.91041,-0.52916 z M 146.7317,127.40264 c 1.34607,-0.79913 2.4474,-1.55025 2.4474,-1.66914 0,-0.11889 -0.15175,-0.3421 -0.33722,-0.49603 -0.24861,-0.20632 -0.91,0.0503 -2.5169,0.97638 -2.67534,1.54191 -2.79916,1.65732 -2.37239,2.21123 0.29745,0.38607 0.58455,0.28044 2.77911,-1.02244 z m -84.343094,0.97369 c 0.31533,-0.5892 0.41825,-0.50336 -2.86895,-2.39268 -1.54727,-0.88929 -1.99724,-1.04623 -2.17851,-0.7598 -0.35113,0.55484 -0.1629,0.81967 1.10561,1.55558 4.03841,2.34284 3.63098,2.17778 3.94185,1.5969 z m 65.188644,-17.54201 c 0.20393,-0.32742 0.87201,-1.46749 1.48462,-2.53348 1.05713,-1.83946 1.08908,-1.95644 0.62752,-2.29729 -0.60226,-0.44474 -0.55505,-0.49534 -2.19133,2.34881 -1.05702,1.83728 -1.28428,2.42598 -1.04692,2.71198 0.42547,0.51266 0.69826,0.45694 1.12611,-0.23002 z m -47.905732,0.26458 c 0.40258,-0.30017 0.31558,-0.54889 -0.94162,-2.6919 -1.43356,-2.44365 -1.66819,-2.68082 -2.27323,-2.29787 -0.281,0.17786 -0.0336,0.77977 1.13992,2.77383 0.82433,1.40067 1.52862,2.54667 1.56508,2.54667 0.0365,0 0.26589,-0.14883 0.50985,-0.33073 z m 23.999242,-9.19427 c 0,-2.734024 -0.0321,-2.910414 -0.52916,-2.910414 -0.4971,0 -0.52917,0.17639 -0.52917,2.910414 0,2.73403 0.0321,2.91042 0.52917,2.91042 0.49709,0 0.52916,-0.17639 0.52916,-2.91042 z"
         style="opacity:1;fill:#000000;stroke-width:0.264583;stop-opacity:1" />
    </g>
    <text
       id="text897"
       y="257.4906"
       x="66.019936"
       style="font-size:19.5473px;line-height:1.25;font-family:'Arial Black';-inkscape-font-specification:'Arial Black, ';stroke-width:0.488683"
       xml:space="preserve"><tspan
         style="stroke-width:0.488683"
         y="257.4906"
         x="66.019936"
         id="tspan895"
         sodipodi:role="line">AUDEM</tspan></text>
  </g>
</svg>
